<svg width="400" height="336" viewBox="0 0 400 336" fill="currentColor"
    xmlns="http://www.w3.org/2000/svg">
    <path fill-rule="evenodd" clip-rule="evenodd"
        d="M.567 173.922v-20.964h45.986v39.225a36.56 36.56 0 0 1 4.538-2.502c5.294-2.457 10.682-4.158 16.165-5.103 5.484-.946 9.927-1.418 13.33-1.418 20.987 0 37.059 6.427 48.214 19.28 11.155 12.664 16.733 31.566 16.733 56.706 0 13.987-1.796 25.895-5.389 35.724-3.592 9.829-8.792 17.768-15.598 23.817-6.807 5.859-14.937 10.112-24.391 12.758-9.454 2.836-20.042 4.253-31.764 4.253-8.13 0-16.26-.567-24.39-1.701-7.942-1.134-15.221-3.024-21.839-5.67-6.617-2.836-11.911-6.805-15.882-11.909-3.78-5.103-5.672-11.813-5.672-20.13V173.922h-.04Zm85.124 118.963c-4.538 2.647-10.399 3.97-17.584 3.97-4.348 0-8.13-.378-11.344-1.134-3.214-.756-5.767-2.079-7.658-3.97-1.701-2.079-2.552-4.631-2.552-7.655v-58.974c3.214-1.701 6.806-2.93 10.777-3.686 3.97-.945 7.563-1.417 10.777-1.417 5.862 0 11.061 1.323 15.599 3.969 4.727 2.457 8.414 6.71 11.06 12.759 2.837 6.048 4.255 14.554 4.255 25.517 0 7.183-1.04 13.421-3.12 18.713-2.08 5.104-5.483 9.073-10.21 11.908Z" />
    <path
        d="M46.553 144.098H.567V32.441H46.53v109.761h.023v1.896ZM0 4.565A4.566 4.566 0 0 1 4.567 0h37.396a4.566 4.566 0 0 1 4.567 4.565v19.352H0V4.565Zm55.559 37.799c3.403-1.89 8.13-3.78 14.18-5.67 6.05-1.89 12.763-3.592 20.137-5.104a222.115 222.115 0 0 1 22.405-3.969c1.856-.278 3.343-.523 4.621-.733 3.93-.645 5.895-.968 10.603-.968 12.667 0 23.634 1.512 32.898 4.536 9.265 3.025 16.355 8.223 21.271 15.594 5.105 7.372 7.658 17.485 7.658 30.338v68.316h-46.796V87.162c0-3.78-.567-7.088-1.702-9.924-.945-3.024-2.458-5.481-4.538-7.371-1.89-1.89-4.537-3.308-7.941-4.253-1.299-.382-1.662-.687-1.933-.915-.399-.335-.598-.503-3.301-.503-3.971 0-8.855.567-12.825 1.701-3.782.945-6.429 1.985-7.941 3.12v75.687H55.559V42.364Zm155.38-5.67c-6.05 1.89-10.777 3.78-14.18 5.67v101.899h46.795V69.016c1.513-1.134 4.16-2.174 7.941-3.119 3.971-1.134 7.942-1.7 11.912-1.7 4.538 0 13.894.472 17.108 1.417 3.403.945 6.05 2.363 7.941 4.253 2.08 1.89 3.592 4.347 4.538 7.371 1.134 2.836 1.701 6.144 1.701 9.924v56.936h46.796v-67.71c0-12.853-2.552-22.966-7.657-30.338-4.916-7.371-12.006-12.57-21.271-15.594-9.265-3.024-20.231-4.536-32.899-4.536-6.239 0-18.62.567-26.183 1.701a222.139 222.139 0 0 0-22.406 3.97c-7.373 1.511-14.086 3.213-20.136 5.103Zm130.552 116.264h-46.796v20.964h.252v157.523h46.512V173.922h.032v-20.964ZM400 331.445h-46.512V153.393h41.945a4.566 4.566 0 0 1 4.567 4.565v173.487Zm-215.678-4.234C195.666 333.07 208.713 336 223.46 336c11.534 0 21.46-.945 29.779-2.835 8.509-1.89 16.072-4.064 22.689-6.521v-39.695c-3.025.946-6.712 2.269-11.061 3.97-4.348 1.701-9.075 3.213-14.18 4.536a70.434 70.434 0 0 1-15.315 1.702c-14.181 0-24.391-3.403-30.63-10.208a31.278 31.278 0 0 1-3.676-5.272h-50.261c1.548 7.262 4.022 13.934 7.425 20.016 6.239 10.963 14.937 19.469 26.092 25.518Z" />
    <path fill-rule="evenodd" clip-rule="evenodd"
        d="M149.381 272.547c-.34-3.313-.51-6.735-.51-10.264 0-25.14 6.334-44.704 19.002-58.691 12.668-13.987 30.913-20.981 54.736-20.981 15.883 0 28.74 3.402 38.571 10.207 9.832 6.805 17.112 16.917 21.838 30.338 4.727 13.42 6.996 29.865 6.807 49.334h-92.367l.015.057h-48.092Zm47.075-28.694c.52-3.798 1.297-7.106 2.33-9.923 2.269-5.671 5.294-9.735 9.076-12.192 3.781-2.646 7.941-3.969 12.479-3.969 8.508 0 14.558 3.118 18.151 9.356 2.359 3.774 4.019 9.35 4.98 16.728h-47.016Z" />
    <path
        d="M200.93 151.567a4.566 4.566 0 0 0-4.567 4.565v18.261h47.493v-18.261a4.566 4.566 0 0 0-4.567-4.565H200.93Z" />
</svg>