<?xml version="1.0" standalone="no"?>
<!DOCTYPE svg PUBLIC "-//W3C//DTD SVG 20010904//EN"
 "http://www.w3.org/TR/2001/REC-SVG-20010904/DTD/svg10.dtd">
<svg version="1.0" xmlns="http://www.w3.org/2000/svg"
 width="700.000000pt" height="700.000000pt" viewBox="0 0 700.000000 700.000000"
 preserveAspectRatio="xMidYMid meet">
<metadata>
Created by potrace 1.14, written by Peter Selinger 2001-2017
</metadata>
<g transform="translate(0.000000,700.000000) scale(0.100000,-0.100000)"
fill="#000000" stroke="none">
<path d="M789 5341 c-22 -18 -23 -25 -24 -152 0 -74 1 -139 3 -146 3 -9 84
-12 318 -12 l314 -1 1 40 c3 206 0 249 -21 270 -19 19 -33 20 -294 20 -253 0
-276 -1 -297 -19z"/>
<path d="M5620 5340 c-16 -16 -20 -34 -21 -87 0 -87 0 -4393 1 -4413 0 -13 41
-15 308 -14 170 0 312 3 318 6 5 4 9 855 9 2248 l-1 2242 -23 19 c-21 18 -44
19 -297 19 -261 0 -275 -1 -294 -20z"/>
<path d="M2385 4994 c-44 -7 -100 -15 -125 -18 -50 -6 -70 -10 -185 -32 -211
-42 -409 -98 -506 -143 l-44 -21 0 -900 0 -900 320 0 320 0 0 716 c0 706 0
717 20 730 31 20 133 45 212 51 72 6 87 3 173 -35 68 -30 121 -107 136 -198 4
-21 8 -313 8 -649 l1 -610 316 -3 317 -2 3 22 c7 39 2 1390 -4 1443 -30 240
-154 409 -360 487 -158 60 -431 88 -602 62z"/>
<path d="M4497 5004 c-1 -1 -47 -5 -102 -8 -183 -12 -289 -28 -525 -81 -142
-31 -345 -96 -389 -123 l-26 -17 0 -690 c0 -659 0 -690 18 -695 14 -4 538 -5
607 -1 13 1 15 63 15 516 l0 515 39 15 c88 35 158 45 301 41 164 -5 219 -20
275 -76 21 -21 47 -63 60 -96 l23 -59 3 -1704 c1 -936 5 -1706 9 -1709 3 -3
143 -6 311 -6 263 -1 307 1 313 14 9 20 6 3538 -3 3614 -11 91 -51 204 -97
274 -120 184 -343 269 -722 276 -59 1 -108 1 -110 0z"/>
<path d="M779 4915 c-1 0 -3 -343 -4 -762 l-2 -763 314 0 c243 0 313 3 313 13
1 16 1 1478 1 1497 -1 13 -43 15 -311 15 -171 1 -311 1 -311 0z"/>
<path d="M3470 3265 c-18 -19 -20 -34 -20 -156 l0 -135 323 1 322 0 3 136 c4
189 32 174 -324 175 -278 1 -284 0 -304 -21z"/>
<path d="M784 3262 c-7 -5 -10 -347 -9 -1032 2 -1126 0 -1078 63 -1175 64 -98
218 -198 341 -221 14 -3 28 -7 31 -9 4 -2 22 -7 41 -10 19 -3 42 -8 51 -11
116 -35 545 -41 708 -9 210 41 404 140 514 262 94 106 177 282 202 432 3 18 8
43 10 55 22 111 22 436 -1 554 -2 11 -6 35 -9 53 -36 215 -147 412 -301 535
-228 182 -627 219 -938 88 -45 -19 -82 -34 -83 -34 -1 0 -2 100 -2 223 0 122
-1 240 -1 263 l-1 41 -303 1 c-167 0 -308 -3 -313 -6z m1014 -922 c155 -36
256 -147 298 -329 22 -94 27 -308 8 -396 -30 -143 -106 -241 -222 -286 -49
-20 -76 -23 -192 -23 -126 -1 -139 1 -193 26 -96 45 -94 33 -94 529 l0 420 26
13 c22 12 97 31 186 50 39 8 141 5 183 -4z"/>
<path d="M3788 2866 c-1 -2 -43 -6 -93 -10 -318 -21 -568 -157 -717 -392 -48
-74 -80 -140 -103 -207 -21 -64 -54 -199 -60 -248 -8 -62 -14 -336 -8 -359 5
-19 26 -20 964 -19 l958 2 -3 121 c-4 122 -8 165 -27 291 -44 294 -168 534
-339 660 -125 92 -267 139 -455 151 -49 3 -95 7 -102 9 -6 2 -13 2 -15 1z
m101 -503 c61 -19 120 -73 151 -139 25 -51 50 -137 50 -174 l0 -25 -319 0
-318 0 4 34 c7 51 38 133 66 178 76 120 226 172 366 126z"/>
<path d="M2835 1482 c4 -15 9 -38 12 -52 8 -45 80 -197 124 -262 57 -85 181
-204 265 -254 182 -108 382 -153 648 -148 210 5 397 38 593 106 l62 21 0 269
c-1 164 -4 268 -10 268 -6 0 -51 -15 -102 -34 -178 -67 -236 -82 -347 -93
-247 -25 -437 32 -534 158 l-35 46 -341 1 -342 1 7 -27z"/>
</g>
</svg>
